<?xml version="1.0" standalone="no"?>
<!DOCTYPE svg PUBLIC "-//W3C//DTD SVG 20010904//EN"
 "http://www.w3.org/TR/2001/REC-SVG-20010904/DTD/svg10.dtd">
<svg version="1.0" xmlns="http://www.w3.org/2000/svg"
 width="180.000000pt" height="180.000000pt" viewBox="0 0 180.000000 180.000000"
 preserveAspectRatio="xMidYMid meet">
<metadata>
Created by potrace 1.11, written by Peter Selinger 2001-2013
</metadata>
<g transform="translate(0.000000,180.000000) scale(0.100000,-0.100000)"
fill="#000000" stroke="none">
<path d="M730 1491 c-151 -49 -238 -138 -296 -306 l-31 -90 -65 -3 -65 -3 -39
-132 -40 -132 63 -3 c55 -3 63 -5 59 -20 -3 -9 -39 -128 -81 -264 -41 -135
-75 -251 -75 -257 0 -8 53 -11 170 -11 151 0 170 2 178 18 5 9 44 133 87 274
l78 258 113 0 112 0 11 33 c9 29 54 178 67 220 5 15 -5 17 -106 17 l-112 0 6
25 c12 47 24 70 51 95 24 23 36 25 147 30 l120 5 39 125 c21 69 39 128 39 133
0 4 -84 7 -187 6 -152 0 -199 -4 -243 -18z"/>
<path d="M1287 1503 c-6 -10 -77 -239 -77 -247 0 -3 80 -6 178 -6 l178 0 38
118 c21 64 41 123 43 130 4 9 -35 12 -175 12 -100 0 -183 -3 -185 -7z"/>
<path d="M1142 1123 c-10 -19 -272 -836 -272 -847 0 -4 80 -5 177 -4 l178 3
132 410 c73 226 135 420 138 433 l5 22 -174 0 c-157 0 -176 -2 -184 -17z"/>
</g>
</svg>
